<svg height="480pt" viewBox="0 -24 480 480" width="480pt" xmlns="http://www.w3.org/2000/svg" xmlns:xlink="http://www.w3.org/1999/xlink"><linearGradient id="a" gradientUnits="userSpaceOnUse" x1="43.728" x2="436.272" y1="372.272" y2="-20.272"><stop offset="0" stop-color="#41dfd0"/><stop offset="1" stop-color="#ee83ef"/></linearGradient><path d="m384 240h-24v-132.6875l24-24v20.6875c0 4.417969 3.582031 8 8 8s8-3.582031 8-8v-40c0-.105469-.054688-.183594-.054688-.289062-.015624-.949219-.203124-1.890626-.554687-2.773438 0-.082031-.085937-.136719-.125-.21875-.355469-.773438-.832031-1.484375-1.417969-2.101562-.191406-.195313-.394531-.378907-.609375-.554688-.503906-.441406-1.0625-.816406-1.664062-1.117188-.257813-.140624-.523438-.265624-.796875-.371093-.886719-.355469-1.824219-.550781-2.777344-.574219h-40c-4.417969 0-8 3.582031-8 8s3.582031 8 8 8h20.6875l-67.808594 67.808594-18.480468-24.609375c-1.339844-1.789063-3.371094-2.933594-5.597657-3.15625-2.222656-.222657-4.441406.496093-6.113281 1.980469l-65.136719 57.886718-42.894531-64.351562c-.136719-.199219-.359375-.3125-.511719-.496094-.382812-.472656-.816406-.898438-1.296875-1.269531-.816406-.683594-1.785156-1.15625-2.824218-1.386719-.28125-.125-.574219-.230469-.871094-.316406-.191406 0-.367188.046875-.550782 0-.1875-.050782-.394531-.089844-.601562-.089844-.871094.171875-1.738281.347656-2.609375.527344-.566406.21875-1.101563.507812-1.597656.855468-.308594.136719-.609375.292969-.898438.464844l-96 80c-.09375.089844-.132812.199219-.222656.289063-.390625.390625-.742187.820312-1.039063 1.289062-.300781.378907-.570312.78125-.800781 1.207031-.328125.984376-.574219 1.996094-.726562 3.023438 0 .121094-.074219.222656-.074219.34375v48h-16.03125c-4.417969 0-8 3.582031-8 8s3.582031 8 8 8h344c4.417969 0 8-3.582031 8-8s-3.582031-8-8-8zm-280 0h-32v-44.246094l32-26.675781zm48 0h-32v-84.246094l32-26.675781zm48 0h-32v-101.601562l32 48zm48 0h-32v-52.414062l32-28.433594zm48 0h-32v-95.070312l14.824219-13.167969 17.175781 22.902343zm48 0h-32v-84.6875l32-32zm104-88c0 4.417969-3.582031 8-8 8h-40c-4.417969 0-8-3.582031-8-8s3.582031-8 8-8h40c4.417969 0 8 3.582031 8 8zm0 32c0 4.417969-3.582031 8-8 8h-40c-4.417969 0-8-3.582031-8-8s3.582031-8 8-8h40c4.417969 0 8 3.582031 8 8zm0 32c0 4.417969-3.582031 8-8 8h-8c-4.417969 0-8-3.582031-8-8s3.582031-8 8-8h8c4.417969 0 8 3.582031 8 8zm-8-216h-400c-22.082031.0273438-39.9726562 17.917969-40 40v272c.0273438 22.082031 17.917969 39.972656 40 40h143.480469c-1.582031 11.902344-6.378907 23.148438-13.878907 32.527344l-1.601562 2.136718c-5.179688 6.929688-7.984375 15.347657-8 24v13.335938c0 4.417969 3.582031 8 8 8h144c4.417969 0 8-3.582031 8-8v-13.335938c-.015625-8.652343-2.820312-17.070312-8-24l-1.601562-2.128906c-7.496094-9.378906-12.296876-20.628906-13.878907-32.535156h143.480469c22.082031-.027344 39.972656-17.917969 40-40v-272c-.027344-22.082031-17.917969-39.9726562-40-40zm-142.398438 394.144531 1.597657 2.128907c3.109375 4.15625 4.792969 9.207031 4.800781 14.398437v5.328125h-128v-5.335938c.007812-5.191406 1.691406-10.242187 4.800781-14.398437l1.597657-2.136719c9.621093-12.128906 15.59375-26.738281 17.226562-42.128906h80.75c1.632812 15.394531 7.605469 30.011719 17.226562 42.144531zm166.398438-82.144531c0 13.253906-10.746094 24-24 24h-400c-13.253906 0-24-10.746094-24-24v-8h448zm0-24h-448v-248c0-13.253906 10.746094-24 24-24h400c13.253906 0 24 10.746094 24 24zm0 0" fill="url(#a)"/></svg>