<?xml version="1.0" encoding="iso-8859-1"?>
<!-- Generator: Adobe Illustrator 19.0.0, SVG Export Plug-In . SVG Version: 6.00 Build 0)  -->
<svg version="1.1" id="Layer_1" xmlns="http://www.w3.org/2000/svg" xmlns:xlink="http://www.w3.org/1999/xlink" x="0px" y="0px"
	 viewBox="0 0 512 512" style="enable-background:new 0 0 512 512;" xml:space="preserve">
<circle style="fill:#E04F5F;" cx="256" cy="256" r="256"/>
<g>
	<path style="fill:#FFFFFF;" d="M186.008,307.16c4.704-0.784,10.856-1.456,18.696-1.456c9.624,0,16.68,2.24,21.16,6.272
		c4.144,3.576,6.6,9.064,6.6,15.784c0,6.832-2.016,12.2-5.824,16.12c-5.152,5.488-13.544,8.28-23.064,8.28
		c-2.904,0-5.592-0.112-7.832-0.672v30.224h-9.736V307.16z M195.744,343.536c2.136,0.56,4.824,0.784,8.064,0.784
		c11.76,0,18.92-5.704,18.92-16.12c0-9.96-7.056-14.776-17.808-14.776c-4.248,0-7.504,0.336-9.176,0.784V343.536z"/>
	<path style="fill:#FFFFFF;" d="M289.24,302.232v65.488c0,4.816,0.112,10.296,0.448,13.992h-8.832l-0.456-9.408h-0.216
		c-3.024,6.048-9.632,10.64-18.48,10.64c-13.096,0-23.168-11.088-23.168-27.536c-0.112-18.024,11.088-29.104,24.296-29.104
		c8.28,0,13.872,3.912,16.344,8.28h0.216v-32.352L289.24,302.232L289.24,302.232z M279.392,349.584c0-1.232-0.112-2.912-0.448-4.144
		c-1.456-6.272-6.832-11.424-14.216-11.424c-10.184,0-16.224,8.952-16.224,20.936c0,10.968,5.368,20.032,16.008,20.032
		c6.6,0,12.648-4.36,14.44-11.752c0.336-1.344,0.448-2.688,0.448-4.256v-9.392H279.392z"/>
	<path style="fill:#FFFFFF;" d="M306.616,381.712v-46.68h-7.608v-7.504h7.608v-2.568c0-7.616,1.68-14.552,6.264-18.92
		c3.696-3.576,8.624-5.04,13.208-5.04c3.472,0,6.496,0.792,8.4,1.568l-1.344,7.608c-1.464-0.672-3.472-1.224-6.272-1.224
		c-8.392,0-10.52,7.384-10.52,15.672v2.904h13.104v7.504h-13.104v46.68H306.616L306.616,381.712z"/>
</g>
<polygon points="285.808,71.976 239.312,71.976 239.312,157.224 186.424,157.224 262.56,249.944 338.688,157.224 285.808,157.224 
	"/>
<g>
</g>
<g>
</g>
<g>
</g>
<g>
</g>
<g>
</g>
<g>
</g>
<g>
</g>
<g>
</g>
<g>
</g>
<g>
</g>
<g>
</g>
<g>
</g>
<g>
</g>
<g>
</g>
<g>
</g>
</svg>
