<svg height="512pt" viewBox="0 0 512 512" width="512pt" xmlns="http://www.w3.org/2000/svg"><path d="m437.019531 74.980469c-48.351562-48.351563-112.640625-74.980469-181.019531-74.980469-68.382812 0-132.667969 26.628906-181.019531 74.980469-48.351563 48.351562-74.980469 112.636719-74.980469 181.019531 0 68.378906 26.628906 132.664062 74.980469 181.019531 48.351562 48.351563 112.640625 74.980469 181.019531 74.980469s132.667969-26.628906 181.019531-74.980469c48.351563-48.355469 74.980469-112.640625 74.980469-181.019531 0-68.382812-26.628906-132.667969-74.980469-181.019531zm0 0" fill="#1de8f1"/><path d="m437.019531 74.980469c-48.351562-48.351563-112.640625-74.980469-181.019531-74.980469v512c68.378906 0 132.667969-26.628906 181.019531-74.980469 48.351563-48.355469 74.980469-112.640625 74.980469-181.019531 0-68.382812-26.628906-132.667969-74.980469-181.019531zm0 0" fill="#00c7ce"/><g fill="#e7f0ef"><path d="m384.53125 208.867188h-208.867188c-8.28125 0-15 6.714843-15 15v64.265624c0 8.285157 6.71875 15 15 15h208.867188c8.285156 0 15-6.714843 15-15v-64.265624c0-8.285157-6.714844-15-15-15zm0 0"/><path d="m175.664062 174.601562h144.605469c8.28125 0 15-6.71875 15-15v-64.269531c0-8.28125-6.71875-15-15-15h-144.605469c-8.28125 0-15 6.71875-15 15v64.269531c0 8.28125 6.71875 15 15 15zm0 0"/><path d="m336.335938 337.398438h-160.671876c-8.28125 0-15 6.714843-15 15v64.265624c0 8.285157 6.71875 15 15 15h160.671876c8.28125 0 15-6.714843 15-15v-64.265624c0-8.285157-6.71875-15-15-15zm0 0"/></g><path d="m160.664062 80.332031h30v351.332031h-30zm0 0" fill="#0065a3"/><path d="m384.53125 208.867188h-128.53125v94.265624h128.53125c8.285156 0 15-6.714843 15-15v-64.265624c0-8.285157-6.714844-15-15-15zm0 0" fill="#c5e1e6"/><path d="m335.269531 159.601562v-64.269531c0-8.28125-6.71875-15-15-15h-64.269531v94.269531h64.269531c8.28125 0 15-6.71875 15-15zm0 0" fill="#c5e1e6"/><path d="m336.335938 431.664062c8.28125 0 15-6.714843 15-15v-64.265624c0-8.285157-6.71875-15-15-15h-80.335938v94.265624zm0 0" fill="#c5e1e6"/></svg>